# xmcd CD database file
#
# Track frame offsets:
#	150
#	19921
#	38442
#	55378
#	79124
#	95984
#	118084
#	133323
#	151400
#	168761
#	187571
#	202748
#
# Disc length: 2996 seconds
#
# Revision: 0
# Processed by: cddbd v1.5.2PL0 Copyright (c) Steve Scherf et al.
# Submitted via: CDex 1.40Beta9
#
DISCID=940bb20c
DTITLE=Dartfod Crossing - Whisky On The Flame
DYEAR=2006
DGENRE=Country
TTITLE0=Attention
TTITLE1=Call Me When It's Over
TTITLE2=Don't Worry
TTITLE3=Whisky On The Flame
TTITLE4=Flowers By The Roadside
TTITLE5=Why I Oughta
TTITLE6=Single Guy
TTITLE7=Dirty Little Town
TTITLE8=I Won't Be Your Lover Boy
TTITLE9=Reckless Heart
TTITLE10=Help Me I Am Falling In Love
TTITLE11=Looking for Love
EXTD=YEAR: 2006 ID3G: 2
EXTT0=
EXTT1=
EXTT2=
EXTT3=
EXTT4=
EXTT5=
EXTT6=
EXTT7=
EXTT8=
EXTT9=
EXTT10=
EXTT11=
PLAYORDER=
